<svg width="28" height="28" viewBox="0 0 28 28" fill="none" xmlns="http://www.w3.org/2000/svg">
<g filter="url(#filter0_d)">
<g clip-path="url(#clip0)">
<path d="M23.9804 5.88005C23.9336 4.81738 23.7617 4.0868 23.5156 3.45374C23.2616 2.78176 22.8709 2.18014 22.359 1.68002C21.8589 1.1721 21.2533 0.777435 20.5891 0.527447C19.9524 0.281274 19.2256 0.109427 18.163 0.0625732C17.0924 0.0117516 16.7525 0 14.0371 0C11.3217 0 10.9818 0.0117516 9.91521 0.0586052C8.85253 0.105459 8.12195 0.277459 7.48904 0.523479C6.81692 0.777435 6.2153 1.16814 5.71517 1.68002C5.20726 2.18014 4.81274 2.78573 4.5626 3.44992C4.31643 4.0868 4.14458 4.81341 4.09773 5.87609C4.04691 6.9467 4.03516 7.28658 4.03516 10.002C4.03516 12.7173 4.04691 13.0572 4.09376 14.1239C4.14061 15.1865 4.31261 15.9171 4.55879 16.5502C4.81274 17.2221 5.20726 17.8238 5.71517 18.3239C6.2153 18.8318 6.82088 19.2265 7.48508 19.4765C8.12195 19.7226 8.84856 19.8945 9.91139 19.9413C10.9779 19.9883 11.3179 19.9999 14.0333 19.9999C16.7487 19.9999 17.0885 19.9883 18.1552 19.9413C19.2179 19.8945 19.9484 19.7226 20.5813 19.4765C21.9254 18.9568 22.9881 17.8941 23.5078 16.5502C23.7538 15.9133 23.9258 15.1865 23.9727 14.1239C24.0195 13.0572 24.0313 12.7173 24.0313 10.002C24.0313 7.28658 24.0273 6.9467 23.9804 5.88005ZM22.1794 14.0457C22.1364 15.0225 21.9723 15.5499 21.8356 15.9015C21.4995 16.7728 20.808 17.4643 19.9367 17.8004C19.5851 17.9372 19.0538 18.1012 18.0809 18.1441C17.026 18.1911 16.7096 18.2027 14.0411 18.2027C11.3726 18.2027 11.0522 18.1911 10.0011 18.1441C9.02438 18.1012 8.49693 17.9372 8.1453 17.8004C7.71171 17.6402 7.31704 17.3862 6.9967 17.0541C6.6646 16.7298 6.41065 16.3391 6.2504 15.9055C6.11365 15.5539 5.94959 15.0225 5.90671 14.0497C5.8597 12.9948 5.8481 12.6783 5.8481 10.0097C5.8481 7.34122 5.8597 7.02087 5.90671 5.96995C5.94959 4.99319 6.11365 4.46575 6.2504 4.11412C6.41065 3.68038 6.6646 3.28586 7.00067 2.96536C7.32483 2.63327 7.71553 2.37931 8.14927 2.21921C8.5009 2.08247 9.03231 1.9184 10.0051 1.87537C11.06 1.82851 11.3765 1.81676 14.0449 1.81676C16.7174 1.81676 17.0337 1.82851 18.0848 1.87537C19.0616 1.9184 19.589 2.08247 19.9407 2.21921C20.3742 2.37931 20.7689 2.63327 21.0893 2.96536C21.4213 3.28967 21.6753 3.68038 21.8356 4.11412C21.9723 4.46575 22.1364 4.99701 22.1794 5.96995C22.2263 7.02484 22.238 7.34122 22.238 10.0097C22.238 12.6783 22.2263 12.9908 22.1794 14.0457Z" fill="white"/>
<path d="M14.0371 4.86414C11.2007 4.86414 8.89941 7.16531 8.89941 10.0019C8.89941 12.8384 11.2007 15.1396 14.0371 15.1396C16.8737 15.1396 19.1749 12.8384 19.1749 10.0019C19.1749 7.16531 16.8737 4.86414 14.0371 4.86414ZM14.0371 13.3346C12.197 13.3346 10.7044 11.8421 10.7044 10.0019C10.7044 8.16159 12.197 6.66914 14.0371 6.66914C15.8774 6.66914 17.3698 8.16159 17.3698 10.0019C17.3698 11.8421 15.8774 13.3346 14.0371 13.3346V13.3346Z" fill="white"/>
<path d="M20.5775 4.6611C20.5775 5.32346 20.0404 5.86052 19.3779 5.86052C18.7155 5.86052 18.1785 5.32346 18.1785 4.6611C18.1785 3.99858 18.7155 3.46167 19.3779 3.46167C20.0404 3.46167 20.5775 3.99858 20.5775 4.6611Z" fill="white"/>
</g>
</g>
<defs>
<filter id="filter0_d" x="0" y="0" width="28" height="28" filterUnits="userSpaceOnUse" color-interpolation-filters="sRGB">
<feFlood flood-opacity="0" result="BackgroundImageFix"/>
<feColorMatrix in="SourceAlpha" type="matrix" values="0 0 0 0 0 0 0 0 0 0 0 0 0 0 0 0 0 0 127 0"/>
<feOffset dy="4"/>
<feGaussianBlur stdDeviation="2"/>
<feColorMatrix type="matrix" values="0 0 0 0 0 0 0 0 0 0 0 0 0 0 0 0 0 0 0.25 0"/>
<feBlend mode="normal" in2="BackgroundImageFix" result="effect1_dropShadow"/>
<feBlend mode="normal" in="SourceGraphic" in2="effect1_dropShadow" result="shape"/>
</filter>
<clipPath id="clip0">
<rect x="4" width="20" height="20" fill="white"/>
</clipPath>
</defs>
</svg>
